<mxfile host="app.diagrams.net" agent="Mozilla/5.0 (Windows NT 10.0; Win64; x64) AppleWebKit/537.36 (KHTML, like Gecko) Chrome/131.0.0.0 Safari/537.36" version="25.0.3">
  <diagram name="第 1 页" id="VrijAnBbICKyq0Ueq7mK">
    <mxGraphModel dx="1434" dy="746" grid="1" gridSize="10" guides="1" tooltips="1" connect="1" arrows="1" fold="1" page="1" pageScale="1" pageWidth="827" pageHeight="1169" math="0" shadow="0">
      <root>
        <mxCell id="0" />
        <mxCell id="1" parent="0" />
        <mxCell id="BZ8Xn5bRoePSsnniKgAR-8" value="" style="edgeStyle=orthogonalEdgeStyle;rounded=0;orthogonalLoop=1;jettySize=auto;html=1;" edge="1" parent="1" source="BZ8Xn5bRoePSsnniKgAR-1">
          <mxGeometry relative="1" as="geometry">
            <mxPoint x="350" y="150" as="targetPoint" />
          </mxGeometry>
        </mxCell>
        <mxCell id="BZ8Xn5bRoePSsnniKgAR-1" value="&lt;font style=&quot;font-size: 20px;&quot;&gt;start&lt;/font&gt;" style="ellipse;whiteSpace=wrap;html=1;" vertex="1" parent="1">
          <mxGeometry x="290" y="40" width="120" height="80" as="geometry" />
        </mxCell>
        <mxCell id="BZ8Xn5bRoePSsnniKgAR-9" value="" style="edgeStyle=orthogonalEdgeStyle;rounded=0;orthogonalLoop=1;jettySize=auto;html=1;" edge="1" parent="1" target="BZ8Xn5bRoePSsnniKgAR-4">
          <mxGeometry relative="1" as="geometry">
            <mxPoint x="350" y="210" as="sourcePoint" />
          </mxGeometry>
        </mxCell>
        <mxCell id="BZ8Xn5bRoePSsnniKgAR-34" value="" style="edgeStyle=orthogonalEdgeStyle;rounded=0;orthogonalLoop=1;jettySize=auto;html=1;" edge="1" parent="1" source="BZ8Xn5bRoePSsnniKgAR-4" target="BZ8Xn5bRoePSsnniKgAR-33">
          <mxGeometry relative="1" as="geometry" />
        </mxCell>
        <mxCell id="BZ8Xn5bRoePSsnniKgAR-4" value="&lt;font style=&quot;font-size: 20px;&quot;&gt;setup&lt;/font&gt;" style="shape=parallelogram;perimeter=parallelogramPerimeter;whiteSpace=wrap;html=1;fixedSize=1;" vertex="1" parent="1">
          <mxGeometry x="290" y="245" width="120" height="60" as="geometry" />
        </mxCell>
        <mxCell id="BZ8Xn5bRoePSsnniKgAR-6" value="&lt;h1 style=&quot;margin-top: 0px;&quot;&gt;&lt;font style=&quot;background-color: initial; font-weight: normal; font-size: 12px;&quot; face=&quot;Verdana&quot;&gt;init ButtonDelay,&amp;nbsp;&lt;/font&gt;&lt;font style=&quot;background-color: initial; font-weight: normal; font-size: 12px;&quot; face=&quot;Verdana&quot;&gt;ArrMax,&amp;nbsp;&lt;/font&gt;&lt;font style=&quot;background-color: initial; font-weight: normal; font-size: 12px;&quot; face=&quot;Verdana&quot;&gt;Button,&amp;nbsp;&lt;/font&gt;&lt;font style=&quot;background-color: initial; font-weight: normal; font-size: 12px;&quot; face=&quot;Verdana&quot;&gt;Motor&lt;/font&gt;&lt;/h1&gt;&lt;h1 style=&quot;margin-top: 0px;&quot;&gt;&lt;font style=&quot;background-color: initial; font-weight: normal; font-size: 12px;&quot; face=&quot;Verdana&quot;&gt;state,&amp;nbsp;&lt;/font&gt;&lt;font style=&quot;background-color: initial; font-weight: normal; font-size: 12px;&quot; face=&quot;Verdana&quot;&gt;time,&amp;nbsp;&lt;/font&gt;&lt;font style=&quot;background-color: initial; font-weight: normal; font-size: 12px;&quot; face=&quot;Verdana&quot;&gt;t,&amp;nbsp;&lt;/font&gt;&lt;font style=&quot;background-color: initial; font-weight: normal; font-size: 12px;&quot; face=&quot;Verdana&quot;&gt;inputIndex,&amp;nbsp;&lt;/font&gt;&lt;font style=&quot;background-color: initial; font-weight: normal; font-size: 12px;&quot; face=&quot;Verdana&quot;&gt;key,&amp;nbsp;&lt;/font&gt;&lt;span style=&quot;background-color: initial; font-size: 12px; font-family: Verdana; font-weight: normal;&quot;&gt;input&lt;/span&gt;&lt;/h1&gt;" style="text;html=1;whiteSpace=wrap;overflow=hidden;rounded=0;" vertex="1" parent="1">
          <mxGeometry x="426" y="130" width="270" height="120" as="geometry" />
        </mxCell>
        <mxCell id="BZ8Xn5bRoePSsnniKgAR-7" value="&lt;h1 style=&quot;margin-top: 0px;&quot;&gt;&lt;span style=&quot;background-color: initial; font-weight: normal;&quot;&gt;&lt;font style=&quot;font-size: 12px;&quot;&gt;set pinMode&lt;/font&gt;&lt;/span&gt;&lt;/h1&gt;" style="text;html=1;whiteSpace=wrap;overflow=hidden;rounded=0;" vertex="1" parent="1">
          <mxGeometry x="436" y="245" width="110" height="71" as="geometry" />
        </mxCell>
        <mxCell id="BZ8Xn5bRoePSsnniKgAR-18" value="" style="edgeStyle=orthogonalEdgeStyle;rounded=0;orthogonalLoop=1;jettySize=auto;html=1;" edge="1" parent="1" source="BZ8Xn5bRoePSsnniKgAR-12" target="BZ8Xn5bRoePSsnniKgAR-17">
          <mxGeometry relative="1" as="geometry" />
        </mxCell>
        <mxCell id="BZ8Xn5bRoePSsnniKgAR-29" value="" style="edgeStyle=orthogonalEdgeStyle;rounded=0;orthogonalLoop=1;jettySize=auto;html=1;" edge="1" parent="1" source="BZ8Xn5bRoePSsnniKgAR-12" target="BZ8Xn5bRoePSsnniKgAR-28">
          <mxGeometry relative="1" as="geometry" />
        </mxCell>
        <mxCell id="BZ8Xn5bRoePSsnniKgAR-12" value="&lt;font style=&quot;font-size: 20px;&quot;&gt;for i in range(11)&lt;/font&gt;" style="shape=hexagon;perimeter=hexagonPerimeter2;whiteSpace=wrap;html=1;fixedSize=1;" vertex="1" parent="1">
          <mxGeometry x="262" y="450" width="176" height="80" as="geometry" />
        </mxCell>
        <mxCell id="BZ8Xn5bRoePSsnniKgAR-16" value="&lt;font style=&quot;font-size: 20px;&quot;&gt;init&lt;/font&gt;" style="whiteSpace=wrap;html=1;" vertex="1" parent="1">
          <mxGeometry x="290" y="150" width="120" height="60" as="geometry" />
        </mxCell>
        <mxCell id="BZ8Xn5bRoePSsnniKgAR-20" value="" style="edgeStyle=orthogonalEdgeStyle;rounded=0;orthogonalLoop=1;jettySize=auto;html=1;" edge="1" parent="1" source="BZ8Xn5bRoePSsnniKgAR-17" target="BZ8Xn5bRoePSsnniKgAR-19">
          <mxGeometry relative="1" as="geometry" />
        </mxCell>
        <mxCell id="BZ8Xn5bRoePSsnniKgAR-25" style="edgeStyle=orthogonalEdgeStyle;rounded=0;orthogonalLoop=1;jettySize=auto;html=1;entryX=1;entryY=0.5;entryDx=0;entryDy=0;" edge="1" parent="1" source="BZ8Xn5bRoePSsnniKgAR-17" target="BZ8Xn5bRoePSsnniKgAR-12">
          <mxGeometry relative="1" as="geometry">
            <mxPoint x="542" y="490" as="targetPoint" />
            <Array as="points">
              <mxPoint x="532" y="610" />
              <mxPoint x="532" y="490" />
            </Array>
          </mxGeometry>
        </mxCell>
        <mxCell id="BZ8Xn5bRoePSsnniKgAR-17" value="&lt;span style=&quot;font-size: 20px;&quot;&gt;digitalRead(Button[i])&lt;/span&gt;" style="rhombus;whiteSpace=wrap;html=1;" vertex="1" parent="1">
          <mxGeometry x="220" y="570" width="260" height="80" as="geometry" />
        </mxCell>
        <mxCell id="BZ8Xn5bRoePSsnniKgAR-40" style="edgeStyle=orthogonalEdgeStyle;rounded=0;orthogonalLoop=1;jettySize=auto;html=1;exitX=0.5;exitY=1;exitDx=0;exitDy=0;" edge="1" parent="1" source="BZ8Xn5bRoePSsnniKgAR-19">
          <mxGeometry relative="1" as="geometry">
            <mxPoint x="350" y="800" as="targetPoint" />
          </mxGeometry>
        </mxCell>
        <mxCell id="BZ8Xn5bRoePSsnniKgAR-19" value="&lt;font style=&quot;font-size: 20px;&quot;&gt;f(i)&lt;/font&gt;" style="whiteSpace=wrap;html=1;" vertex="1" parent="1">
          <mxGeometry x="290" y="710" width="120" height="60" as="geometry" />
        </mxCell>
        <mxCell id="BZ8Xn5bRoePSsnniKgAR-21" value="True" style="text;html=1;align=center;verticalAlign=middle;whiteSpace=wrap;rounded=0;" vertex="1" parent="1">
          <mxGeometry x="342" y="660" width="60" height="30" as="geometry" />
        </mxCell>
        <mxCell id="BZ8Xn5bRoePSsnniKgAR-22" value="False" style="text;html=1;align=center;verticalAlign=middle;whiteSpace=wrap;rounded=0;" vertex="1" parent="1">
          <mxGeometry x="520" y="540" width="60" height="30" as="geometry" />
        </mxCell>
        <mxCell id="BZ8Xn5bRoePSsnniKgAR-31" value="" style="edgeStyle=orthogonalEdgeStyle;rounded=0;orthogonalLoop=1;jettySize=auto;html=1;" edge="1" parent="1" source="BZ8Xn5bRoePSsnniKgAR-28" target="BZ8Xn5bRoePSsnniKgAR-30">
          <mxGeometry relative="1" as="geometry" />
        </mxCell>
        <mxCell id="BZ8Xn5bRoePSsnniKgAR-36" style="edgeStyle=orthogonalEdgeStyle;rounded=0;orthogonalLoop=1;jettySize=auto;html=1;" edge="1" parent="1" source="BZ8Xn5bRoePSsnniKgAR-28">
          <mxGeometry relative="1" as="geometry">
            <mxPoint x="200" y="800" as="targetPoint" />
          </mxGeometry>
        </mxCell>
        <mxCell id="BZ8Xn5bRoePSsnniKgAR-28" value="&lt;font style=&quot;font-size: 20px;&quot;&gt;if state == 0&lt;/font&gt;" style="rhombus;whiteSpace=wrap;html=1;" vertex="1" parent="1">
          <mxGeometry x="40" y="570" width="130" height="80" as="geometry" />
        </mxCell>
        <mxCell id="BZ8Xn5bRoePSsnniKgAR-37" style="edgeStyle=orthogonalEdgeStyle;rounded=0;orthogonalLoop=1;jettySize=auto;html=1;entryX=1;entryY=0.5;entryDx=0;entryDy=0;" edge="1" parent="1" source="BZ8Xn5bRoePSsnniKgAR-30" target="BZ8Xn5bRoePSsnniKgAR-33">
          <mxGeometry relative="1" as="geometry">
            <mxPoint x="620" y="400" as="targetPoint" />
            <Array as="points">
              <mxPoint x="105" y="800" />
              <mxPoint x="640" y="800" />
              <mxPoint x="640" y="380" />
            </Array>
          </mxGeometry>
        </mxCell>
        <mxCell id="BZ8Xn5bRoePSsnniKgAR-30" value="&lt;font style=&quot;font-size: 20px;&quot;&gt;關閉馬達&lt;/font&gt;" style="rounded=0;whiteSpace=wrap;html=1;" vertex="1" parent="1">
          <mxGeometry x="45" y="710" width="120" height="60" as="geometry" />
        </mxCell>
        <mxCell id="BZ8Xn5bRoePSsnniKgAR-32" value="True" style="text;html=1;align=center;verticalAlign=middle;whiteSpace=wrap;rounded=0;" vertex="1" parent="1">
          <mxGeometry x="90" y="660" width="60" height="30" as="geometry" />
        </mxCell>
        <mxCell id="BZ8Xn5bRoePSsnniKgAR-35" value="" style="edgeStyle=orthogonalEdgeStyle;rounded=0;orthogonalLoop=1;jettySize=auto;html=1;" edge="1" parent="1" source="BZ8Xn5bRoePSsnniKgAR-33" target="BZ8Xn5bRoePSsnniKgAR-12">
          <mxGeometry relative="1" as="geometry" />
        </mxCell>
        <mxCell id="BZ8Xn5bRoePSsnniKgAR-33" value="&lt;font style=&quot;font-size: 20px;&quot;&gt;loop&lt;/font&gt;" style="shape=hexagon;perimeter=hexagonPerimeter2;whiteSpace=wrap;html=1;fixedSize=1;" vertex="1" parent="1">
          <mxGeometry x="290" y="340" width="120" height="80" as="geometry" />
        </mxCell>
        <mxCell id="BZ8Xn5bRoePSsnniKgAR-39" value="False" style="text;html=1;align=center;verticalAlign=middle;whiteSpace=wrap;rounded=0;" vertex="1" parent="1">
          <mxGeometry x="190" y="660" width="60" height="30" as="geometry" />
        </mxCell>
        <mxCell id="BZ8Xn5bRoePSsnniKgAR-43" value="" style="edgeStyle=orthogonalEdgeStyle;rounded=0;orthogonalLoop=1;jettySize=auto;html=1;" edge="1" parent="1" source="BZ8Xn5bRoePSsnniKgAR-41" target="BZ8Xn5bRoePSsnniKgAR-42">
          <mxGeometry relative="1" as="geometry" />
        </mxCell>
        <mxCell id="BZ8Xn5bRoePSsnniKgAR-41" value="&lt;font style=&quot;font-size: 20px;&quot;&gt;f(i: int)&lt;/font&gt;" style="ellipse;whiteSpace=wrap;html=1;" vertex="1" parent="1">
          <mxGeometry x="290" y="840" width="120" height="80" as="geometry" />
        </mxCell>
        <mxCell id="BZ8Xn5bRoePSsnniKgAR-49" value="" style="edgeStyle=orthogonalEdgeStyle;rounded=0;orthogonalLoop=1;jettySize=auto;html=1;" edge="1" parent="1" source="BZ8Xn5bRoePSsnniKgAR-42" target="BZ8Xn5bRoePSsnniKgAR-48">
          <mxGeometry relative="1" as="geometry" />
        </mxCell>
        <mxCell id="BZ8Xn5bRoePSsnniKgAR-78" style="edgeStyle=orthogonalEdgeStyle;rounded=0;orthogonalLoop=1;jettySize=auto;html=1;" edge="1" parent="1" source="BZ8Xn5bRoePSsnniKgAR-42" target="BZ8Xn5bRoePSsnniKgAR-79">
          <mxGeometry relative="1" as="geometry">
            <mxPoint x="760" y="1920" as="targetPoint" />
            <Array as="points">
              <mxPoint x="760" y="980" />
              <mxPoint x="760" y="1840" />
              <mxPoint x="500" y="1840" />
            </Array>
          </mxGeometry>
        </mxCell>
        <mxCell id="BZ8Xn5bRoePSsnniKgAR-42" value="&lt;font style=&quot;font-size: 20px;&quot;&gt;if i == 10&lt;/font&gt;" style="rhombus;whiteSpace=wrap;html=1;" vertex="1" parent="1">
          <mxGeometry x="295" y="940" width="110" height="80" as="geometry" />
        </mxCell>
        <mxCell id="BZ8Xn5bRoePSsnniKgAR-51" value="" style="edgeStyle=orthogonalEdgeStyle;rounded=0;orthogonalLoop=1;jettySize=auto;html=1;" edge="1" parent="1" source="BZ8Xn5bRoePSsnniKgAR-48" target="BZ8Xn5bRoePSsnniKgAR-50">
          <mxGeometry relative="1" as="geometry" />
        </mxCell>
        <mxCell id="BZ8Xn5bRoePSsnniKgAR-53" value="" style="edgeStyle=orthogonalEdgeStyle;rounded=0;orthogonalLoop=1;jettySize=auto;html=1;" edge="1" parent="1" source="BZ8Xn5bRoePSsnniKgAR-48" target="BZ8Xn5bRoePSsnniKgAR-52">
          <mxGeometry relative="1" as="geometry" />
        </mxCell>
        <mxCell id="BZ8Xn5bRoePSsnniKgAR-48" value="&lt;font style=&quot;font-size: 20px;&quot;&gt;if state == 0 and check()&lt;/font&gt;" style="rhombus;whiteSpace=wrap;html=1;" vertex="1" parent="1">
          <mxGeometry x="222.5" y="1050" width="255" height="80" as="geometry" />
        </mxCell>
        <mxCell id="BZ8Xn5bRoePSsnniKgAR-63" style="edgeStyle=orthogonalEdgeStyle;rounded=0;orthogonalLoop=1;jettySize=auto;html=1;" edge="1" parent="1" source="BZ8Xn5bRoePSsnniKgAR-50" target="BZ8Xn5bRoePSsnniKgAR-66">
          <mxGeometry relative="1" as="geometry">
            <mxPoint x="700" y="1550" as="targetPoint" />
            <Array as="points">
              <mxPoint x="700" y="1090" />
              <mxPoint x="700" y="1760" />
            </Array>
          </mxGeometry>
        </mxCell>
        <mxCell id="BZ8Xn5bRoePSsnniKgAR-50" value="&lt;font style=&quot;font-size: 20px;&quot;&gt;state = 1&lt;/font&gt;" style="whiteSpace=wrap;html=1;" vertex="1" parent="1">
          <mxGeometry x="510" y="1060" width="120" height="60" as="geometry" />
        </mxCell>
        <mxCell id="BZ8Xn5bRoePSsnniKgAR-55" value="" style="edgeStyle=orthogonalEdgeStyle;rounded=0;orthogonalLoop=1;jettySize=auto;html=1;" edge="1" parent="1" source="BZ8Xn5bRoePSsnniKgAR-52" target="BZ8Xn5bRoePSsnniKgAR-54">
          <mxGeometry relative="1" as="geometry" />
        </mxCell>
        <mxCell id="BZ8Xn5bRoePSsnniKgAR-59" value="" style="edgeStyle=orthogonalEdgeStyle;rounded=0;orthogonalLoop=1;jettySize=auto;html=1;" edge="1" parent="1" source="BZ8Xn5bRoePSsnniKgAR-52" target="BZ8Xn5bRoePSsnniKgAR-58">
          <mxGeometry relative="1" as="geometry" />
        </mxCell>
        <mxCell id="BZ8Xn5bRoePSsnniKgAR-52" value="&lt;span style=&quot;font-size: 20px;&quot;&gt;if state == 1&lt;/span&gt;" style="rhombus;whiteSpace=wrap;html=1;" vertex="1" parent="1">
          <mxGeometry x="280" y="1169" width="140" height="80" as="geometry" />
        </mxCell>
        <mxCell id="BZ8Xn5bRoePSsnniKgAR-64" style="edgeStyle=orthogonalEdgeStyle;rounded=0;orthogonalLoop=1;jettySize=auto;html=1;" edge="1" parent="1" source="BZ8Xn5bRoePSsnniKgAR-54">
          <mxGeometry relative="1" as="geometry">
            <mxPoint x="700" y="1209" as="targetPoint" />
          </mxGeometry>
        </mxCell>
        <mxCell id="BZ8Xn5bRoePSsnniKgAR-54" value="&lt;font style=&quot;font-size: 20px;&quot;&gt;state = 2&lt;/font&gt;" style="whiteSpace=wrap;html=1;" vertex="1" parent="1">
          <mxGeometry x="510" y="1179" width="120" height="60" as="geometry" />
        </mxCell>
        <mxCell id="BZ8Xn5bRoePSsnniKgAR-62" value="" style="edgeStyle=orthogonalEdgeStyle;rounded=0;orthogonalLoop=1;jettySize=auto;html=1;" edge="1" parent="1" source="BZ8Xn5bRoePSsnniKgAR-58" target="BZ8Xn5bRoePSsnniKgAR-60">
          <mxGeometry relative="1" as="geometry" />
        </mxCell>
        <mxCell id="BZ8Xn5bRoePSsnniKgAR-65" style="edgeStyle=orthogonalEdgeStyle;rounded=0;orthogonalLoop=1;jettySize=auto;html=1;" edge="1" parent="1" source="BZ8Xn5bRoePSsnniKgAR-58">
          <mxGeometry relative="1" as="geometry">
            <mxPoint x="700" y="1330.0000000000002" as="targetPoint" />
          </mxGeometry>
        </mxCell>
        <mxCell id="BZ8Xn5bRoePSsnniKgAR-58" value="&lt;span style=&quot;font-size: 20px;&quot;&gt;if state == 2&lt;/span&gt;" style="rhombus;whiteSpace=wrap;html=1;" vertex="1" parent="1">
          <mxGeometry x="280" y="1290" width="140" height="80" as="geometry" />
        </mxCell>
        <mxCell id="BZ8Xn5bRoePSsnniKgAR-69" value="" style="edgeStyle=orthogonalEdgeStyle;rounded=0;orthogonalLoop=1;jettySize=auto;html=1;" edge="1" parent="1" source="BZ8Xn5bRoePSsnniKgAR-60" target="BZ8Xn5bRoePSsnniKgAR-68">
          <mxGeometry relative="1" as="geometry" />
        </mxCell>
        <mxCell id="BZ8Xn5bRoePSsnniKgAR-60" value="&lt;font style=&quot;font-size: 20px;&quot;&gt;state = 0&lt;/font&gt;" style="whiteSpace=wrap;html=1;" vertex="1" parent="1">
          <mxGeometry x="290" y="1410" width="120" height="60" as="geometry" />
        </mxCell>
        <mxCell id="BZ8Xn5bRoePSsnniKgAR-105" style="edgeStyle=orthogonalEdgeStyle;rounded=0;orthogonalLoop=1;jettySize=auto;html=1;entryX=0;entryY=0.5;entryDx=0;entryDy=0;" edge="1" parent="1" source="BZ8Xn5bRoePSsnniKgAR-66" target="BZ8Xn5bRoePSsnniKgAR-86">
          <mxGeometry relative="1" as="geometry">
            <mxPoint x="80" y="2120" as="targetPoint" />
            <Array as="points">
              <mxPoint x="350" y="1840" />
              <mxPoint x="140" y="1840" />
              <mxPoint x="140" y="2090" />
            </Array>
          </mxGeometry>
        </mxCell>
        <mxCell id="BZ8Xn5bRoePSsnniKgAR-66" value="&lt;div&gt;&lt;font style=&quot;font-size: 18px;&quot;&gt;showinfo&lt;/font&gt;&lt;/div&gt;&lt;font style=&quot;font-size: 18px;&quot;&gt;input = -1&lt;/font&gt;" style="rounded=0;whiteSpace=wrap;html=1;" vertex="1" parent="1">
          <mxGeometry x="290" y="1730" width="120" height="60" as="geometry" />
        </mxCell>
        <mxCell id="BZ8Xn5bRoePSsnniKgAR-71" value="" style="edgeStyle=orthogonalEdgeStyle;rounded=0;orthogonalLoop=1;jettySize=auto;html=1;" edge="1" parent="1" source="BZ8Xn5bRoePSsnniKgAR-68" target="BZ8Xn5bRoePSsnniKgAR-70">
          <mxGeometry relative="1" as="geometry" />
        </mxCell>
        <mxCell id="BZ8Xn5bRoePSsnniKgAR-73" value="" style="edgeStyle=orthogonalEdgeStyle;rounded=0;orthogonalLoop=1;jettySize=auto;html=1;" edge="1" parent="1" source="BZ8Xn5bRoePSsnniKgAR-68" target="BZ8Xn5bRoePSsnniKgAR-72">
          <mxGeometry relative="1" as="geometry" />
        </mxCell>
        <mxCell id="BZ8Xn5bRoePSsnniKgAR-68" value="&lt;span style=&quot;font-size: 20px;&quot;&gt;if index == 0&lt;/span&gt;" style="rhombus;whiteSpace=wrap;html=1;" vertex="1" parent="1">
          <mxGeometry x="275" y="1510" width="150" height="80" as="geometry" />
        </mxCell>
        <mxCell id="BZ8Xn5bRoePSsnniKgAR-77" style="edgeStyle=orthogonalEdgeStyle;rounded=0;orthogonalLoop=1;jettySize=auto;html=1;entryX=1;entryY=0.5;entryDx=0;entryDy=0;" edge="1" parent="1" source="BZ8Xn5bRoePSsnniKgAR-70" target="BZ8Xn5bRoePSsnniKgAR-66">
          <mxGeometry relative="1" as="geometry">
            <Array as="points">
              <mxPoint x="520" y="1760" />
            </Array>
          </mxGeometry>
        </mxCell>
        <mxCell id="BZ8Xn5bRoePSsnniKgAR-70" value="&lt;font style=&quot;font-size: 20px;&quot;&gt;key = 0, -1, -1......&lt;/font&gt;" style="whiteSpace=wrap;html=1;" vertex="1" parent="1">
          <mxGeometry x="436" y="1640" width="170" height="60" as="geometry" />
        </mxCell>
        <mxCell id="BZ8Xn5bRoePSsnniKgAR-76" style="edgeStyle=orthogonalEdgeStyle;rounded=0;orthogonalLoop=1;jettySize=auto;html=1;entryX=0;entryY=0.5;entryDx=0;entryDy=0;" edge="1" parent="1" source="BZ8Xn5bRoePSsnniKgAR-72" target="BZ8Xn5bRoePSsnniKgAR-66">
          <mxGeometry relative="1" as="geometry">
            <Array as="points">
              <mxPoint x="170" y="1760" />
            </Array>
          </mxGeometry>
        </mxCell>
        <mxCell id="BZ8Xn5bRoePSsnniKgAR-72" value="&lt;font style=&quot;font-size: 20px;&quot;&gt;key = input&lt;/font&gt;" style="whiteSpace=wrap;html=1;" vertex="1" parent="1">
          <mxGeometry x="110" y="1640" width="120" height="60" as="geometry" />
        </mxCell>
        <mxCell id="BZ8Xn5bRoePSsnniKgAR-81" value="" style="edgeStyle=orthogonalEdgeStyle;rounded=0;orthogonalLoop=1;jettySize=auto;html=1;" edge="1" parent="1" source="BZ8Xn5bRoePSsnniKgAR-79" target="BZ8Xn5bRoePSsnniKgAR-80">
          <mxGeometry relative="1" as="geometry" />
        </mxCell>
        <mxCell id="BZ8Xn5bRoePSsnniKgAR-85" style="edgeStyle=orthogonalEdgeStyle;rounded=0;orthogonalLoop=1;jettySize=auto;html=1;entryX=0.5;entryY=0;entryDx=0;entryDy=0;" edge="1" parent="1" source="BZ8Xn5bRoePSsnniKgAR-79" target="BZ8Xn5bRoePSsnniKgAR-84">
          <mxGeometry relative="1" as="geometry" />
        </mxCell>
        <mxCell id="BZ8Xn5bRoePSsnniKgAR-79" value="&lt;font style=&quot;font-size: 20px;&quot;&gt;if state == 0 or state == 2&lt;/font&gt;" style="rhombus;whiteSpace=wrap;html=1;" vertex="1" parent="1">
          <mxGeometry x="370" y="1880" width="250" height="80" as="geometry" />
        </mxCell>
        <mxCell id="BZ8Xn5bRoePSsnniKgAR-88" style="edgeStyle=orthogonalEdgeStyle;rounded=0;orthogonalLoop=1;jettySize=auto;html=1;entryX=0;entryY=0.5;entryDx=0;entryDy=0;" edge="1" parent="1" source="BZ8Xn5bRoePSsnniKgAR-80" target="BZ8Xn5bRoePSsnniKgAR-86">
          <mxGeometry relative="1" as="geometry">
            <Array as="points">
              <mxPoint x="265" y="2090" />
            </Array>
          </mxGeometry>
        </mxCell>
        <mxCell id="BZ8Xn5bRoePSsnniKgAR-80" value="&lt;font style=&quot;font-size: 20px;&quot;&gt;input.append(i)&lt;/font&gt;&lt;div&gt;&lt;font style=&quot;font-size: 20px;&quot;&gt;showinfo&lt;/font&gt;&lt;/div&gt;" style="whiteSpace=wrap;html=1;" vertex="1" parent="1">
          <mxGeometry x="190" y="1970" width="150" height="60" as="geometry" />
        </mxCell>
        <mxCell id="BZ8Xn5bRoePSsnniKgAR-89" style="edgeStyle=orthogonalEdgeStyle;rounded=0;orthogonalLoop=1;jettySize=auto;html=1;entryX=1;entryY=0.5;entryDx=0;entryDy=0;" edge="1" parent="1" source="BZ8Xn5bRoePSsnniKgAR-84" target="BZ8Xn5bRoePSsnniKgAR-86">
          <mxGeometry relative="1" as="geometry">
            <Array as="points">
              <mxPoint x="706" y="2090" />
            </Array>
          </mxGeometry>
        </mxCell>
        <mxCell id="BZ8Xn5bRoePSsnniKgAR-84" value="&lt;font style=&quot;font-size: 20px;&quot;&gt;state = 0&lt;/font&gt;" style="whiteSpace=wrap;html=1;" vertex="1" parent="1">
          <mxGeometry x="631" y="1970" width="150" height="60" as="geometry" />
        </mxCell>
        <mxCell id="BZ8Xn5bRoePSsnniKgAR-86" value="&lt;font style=&quot;font-size: 20px;&quot;&gt;return&lt;/font&gt;" style="ellipse;whiteSpace=wrap;html=1;" vertex="1" parent="1">
          <mxGeometry x="435" y="2050" width="120" height="80" as="geometry" />
        </mxCell>
        <mxCell id="BZ8Xn5bRoePSsnniKgAR-93" value="True" style="text;html=1;align=center;verticalAlign=middle;whiteSpace=wrap;rounded=0;" vertex="1" parent="1">
          <mxGeometry x="340" y="1020" width="60" height="30" as="geometry" />
        </mxCell>
        <mxCell id="BZ8Xn5bRoePSsnniKgAR-94" value="True" style="text;html=1;align=center;verticalAlign=middle;whiteSpace=wrap;rounded=0;" vertex="1" parent="1">
          <mxGeometry x="460" y="1060" width="60" height="30" as="geometry" />
        </mxCell>
        <mxCell id="BZ8Xn5bRoePSsnniKgAR-95" value="True" style="text;html=1;align=center;verticalAlign=middle;whiteSpace=wrap;rounded=0;" vertex="1" parent="1">
          <mxGeometry x="435" y="1180" width="60" height="30" as="geometry" />
        </mxCell>
        <mxCell id="BZ8Xn5bRoePSsnniKgAR-96" value="True" style="text;html=1;align=center;verticalAlign=middle;whiteSpace=wrap;rounded=0;" vertex="1" parent="1">
          <mxGeometry x="340" y="1370" width="60" height="30" as="geometry" />
        </mxCell>
        <mxCell id="BZ8Xn5bRoePSsnniKgAR-97" value="True" style="text;html=1;align=center;verticalAlign=middle;whiteSpace=wrap;rounded=0;" vertex="1" parent="1">
          <mxGeometry x="450" y="1530" width="60" height="30" as="geometry" />
        </mxCell>
        <mxCell id="BZ8Xn5bRoePSsnniKgAR-98" value="True" style="text;html=1;align=center;verticalAlign=middle;whiteSpace=wrap;rounded=0;" vertex="1" parent="1">
          <mxGeometry x="282" y="1900" width="60" height="30" as="geometry" />
        </mxCell>
        <mxCell id="BZ8Xn5bRoePSsnniKgAR-99" value="False" style="text;html=1;align=center;verticalAlign=middle;whiteSpace=wrap;rounded=0;" vertex="1" parent="1">
          <mxGeometry x="531" y="960" width="60" height="30" as="geometry" />
        </mxCell>
        <mxCell id="BZ8Xn5bRoePSsnniKgAR-100" value="False" style="text;html=1;align=center;verticalAlign=middle;whiteSpace=wrap;rounded=0;" vertex="1" parent="1">
          <mxGeometry x="340" y="1130" width="60" height="30" as="geometry" />
        </mxCell>
        <mxCell id="BZ8Xn5bRoePSsnniKgAR-101" value="False" style="text;html=1;align=center;verticalAlign=middle;whiteSpace=wrap;rounded=0;" vertex="1" parent="1">
          <mxGeometry x="340" y="1249" width="60" height="30" as="geometry" />
        </mxCell>
        <mxCell id="BZ8Xn5bRoePSsnniKgAR-102" value="False" style="text;html=1;align=center;verticalAlign=middle;whiteSpace=wrap;rounded=0;" vertex="1" parent="1">
          <mxGeometry x="500" y="1310" width="60" height="30" as="geometry" />
        </mxCell>
        <mxCell id="BZ8Xn5bRoePSsnniKgAR-103" value="False" style="text;html=1;align=center;verticalAlign=middle;whiteSpace=wrap;rounded=0;" vertex="1" parent="1">
          <mxGeometry x="202" y="1530" width="60" height="30" as="geometry" />
        </mxCell>
        <mxCell id="BZ8Xn5bRoePSsnniKgAR-104" value="False" style="text;html=1;align=center;verticalAlign=middle;whiteSpace=wrap;rounded=0;" vertex="1" parent="1">
          <mxGeometry x="636" y="1900" width="60" height="30" as="geometry" />
        </mxCell>
      </root>
    </mxGraphModel>
  </diagram>
</mxfile>
